<mxfile host="www.draw.io" modified="2019-11-23T19:31:14.450Z" agent="Mozilla/5.0 (X11; Ubuntu; Linux x86_64; rv:70.0) Gecko/20100101 Firefox/70.0" etag="sF0PxhVRdd2pkeDNRv1l" version="12.2.9" type="github" pages="1">
  <diagram id="MukzNoW6FT87hppJwxqV" name="Page-1">
    <mxGraphModel dx="1262" dy="633" grid="1" gridSize="10" guides="1" tooltips="1" connect="1" arrows="1" fold="1" page="1" pageScale="1" pageWidth="850" pageHeight="1100" math="0" shadow="0">
      <root>
        <mxCell id="0"/>
        <mxCell id="1" parent="0"/>
        <mxCell id="a2Nq3Wo1sTJPkK-2tMOB-8" value="" style="rounded=1;whiteSpace=wrap;html=1;" vertex="1" parent="1">
          <mxGeometry x="281" y="60" width="99" height="380" as="geometry"/>
        </mxCell>
        <mxCell id="a2Nq3Wo1sTJPkK-2tMOB-6" value="" style="rounded=1;whiteSpace=wrap;html=1;" vertex="1" parent="1">
          <mxGeometry x="90" y="60" width="111" height="380" as="geometry"/>
        </mxCell>
        <mxCell id="_9zNWGBA2krVFKLHYOJP-1" value="" style="verticalLabelPosition=bottom;html=1;verticalAlign=top;align=center;strokeColor=none;fillColor=#00BEF2;shape=mxgraph.azure.code_file;pointerEvents=1;" parent="1" vertex="1">
          <mxGeometry x="1290" y="769" width="47.5" height="50" as="geometry"/>
        </mxCell>
        <mxCell id="_9zNWGBA2krVFKLHYOJP-2" value="" style="verticalLabelPosition=bottom;html=1;verticalAlign=top;align=center;strokeColor=none;fillColor=#00BEF2;shape=mxgraph.azure.script_file;pointerEvents=1;" parent="1" vertex="1">
          <mxGeometry x="1405" y="680" width="47.5" height="50" as="geometry"/>
        </mxCell>
        <mxCell id="_9zNWGBA2krVFKLHYOJP-3" value="" style="shape=image;html=1;verticalAlign=top;verticalLabelPosition=bottom;labelBackgroundColor=#ffffff;imageAspect=0;aspect=fixed;image=https://cdn1.iconfinder.com/data/icons/DarkGlass_Reworked/128x128/mimetypes/binary.png" parent="1" vertex="1">
          <mxGeometry x="300" y="80" width="65" height="65" as="geometry"/>
        </mxCell>
        <mxCell id="_9zNWGBA2krVFKLHYOJP-4" value="&lt;pre&gt;&lt;font face=&quot;Courier New&quot;&gt;main.c&lt;/font&gt;&lt;/pre&gt;" style="text;html=1;resizable=0;autosize=1;align=center;verticalAlign=middle;points=[];fillColor=none;strokeColor=none;rounded=0;fontFamily=Ubuntu Mono;" parent="1" vertex="1">
          <mxGeometry x="110.5" y="140" width="60" height="50" as="geometry"/>
        </mxCell>
        <mxCell id="_9zNWGBA2krVFKLHYOJP-8" value="" style="html=1;shadow=0;dashed=0;align=center;verticalAlign=middle;shape=mxgraph.arrows2.arrow;dy=0.6;dx=40;notch=0;fontSize=15;fillColor=#dae8fc;strokeColor=#6c8ebf;" parent="1" vertex="1">
          <mxGeometry x="420" y="227.5" width="80" height="45" as="geometry"/>
        </mxCell>
        <mxCell id="_9zNWGBA2krVFKLHYOJP-10" value="" style="shape=image;html=1;verticalAlign=top;verticalLabelPosition=bottom;labelBackgroundColor=#ffffff;imageAspect=0;aspect=fixed;image=https://cdn1.iconfinder.com/data/icons/hawcons/32/699871-icon-88-document-file-c-128.png;fontSize=15;" parent="1" vertex="1">
          <mxGeometry x="1290" y="821" width="62" height="62" as="geometry"/>
        </mxCell>
        <mxCell id="_9zNWGBA2krVFKLHYOJP-11" value="" style="shape=image;html=1;verticalAlign=top;verticalLabelPosition=bottom;labelBackgroundColor=#ffffff;imageAspect=0;aspect=fixed;image=https://cdn1.iconfinder.com/data/icons/hawcons/32/699144-icon-68-document-file-app-128.png;fontSize=15;" parent="1" vertex="1">
          <mxGeometry x="520" y="215" width="70" height="70" as="geometry"/>
        </mxCell>
        <mxCell id="_9zNWGBA2krVFKLHYOJP-12" value="" style="shape=image;html=1;verticalAlign=top;verticalLabelPosition=bottom;labelBackgroundColor=#ffffff;imageAspect=0;aspect=fixed;image=https://cdn1.iconfinder.com/data/icons/hawcons/32/698695-icon-104-document-file-h-128.png;fontSize=15;" parent="1" vertex="1">
          <mxGeometry x="1370" y="749" width="70" height="70" as="geometry"/>
        </mxCell>
        <mxCell id="_9zNWGBA2krVFKLHYOJP-13" value="" style="shape=image;html=1;verticalAlign=top;verticalLabelPosition=bottom;labelBackgroundColor=#ffffff;imageAspect=0;aspect=fixed;image=https://cdn1.iconfinder.com/data/icons/hawcons/32/699165-icon-88-document-file-c-128.png;fontSize=15;" parent="1" vertex="1">
          <mxGeometry x="110.5" y="80" width="75" height="75" as="geometry"/>
        </mxCell>
        <mxCell id="_9zNWGBA2krVFKLHYOJP-14" value="" style="shape=image;html=1;verticalAlign=top;verticalLabelPosition=bottom;labelBackgroundColor=#ffffff;imageAspect=0;aspect=fixed;image=https://cdn1.iconfinder.com/data/icons/hawcons/32/698710-icon-118-document-file-qt-128.png;fontSize=15;" parent="1" vertex="1">
          <mxGeometry x="1370" y="819" width="64" height="64" as="geometry"/>
        </mxCell>
        <mxCell id="a2Nq3Wo1sTJPkK-2tMOB-1" value="&lt;pre&gt;&lt;font face=&quot;Courier New&quot;&gt;src0.c&lt;/font&gt;&lt;/pre&gt;" style="text;html=1;resizable=0;autosize=1;align=center;verticalAlign=middle;points=[];fillColor=none;strokeColor=none;rounded=0;fontFamily=Ubuntu Mono;" vertex="1" parent="1">
          <mxGeometry x="110.5" y="241" width="60" height="50" as="geometry"/>
        </mxCell>
        <mxCell id="a2Nq3Wo1sTJPkK-2tMOB-2" value="" style="shape=image;html=1;verticalAlign=top;verticalLabelPosition=bottom;labelBackgroundColor=#ffffff;imageAspect=0;aspect=fixed;image=https://cdn1.iconfinder.com/data/icons/hawcons/32/699165-icon-88-document-file-c-128.png;fontSize=15;" vertex="1" parent="1">
          <mxGeometry x="110.5" y="181" width="75" height="75" as="geometry"/>
        </mxCell>
        <mxCell id="a2Nq3Wo1sTJPkK-2tMOB-3" value="&lt;pre&gt;&lt;font face=&quot;Courier New&quot;&gt;src1.c&lt;/font&gt;&lt;/pre&gt;" style="text;html=1;resizable=0;autosize=1;align=center;verticalAlign=middle;points=[];fillColor=none;strokeColor=none;rounded=0;fontFamily=Ubuntu Mono;" vertex="1" parent="1">
          <mxGeometry x="110.5" y="340" width="60" height="50" as="geometry"/>
        </mxCell>
        <mxCell id="a2Nq3Wo1sTJPkK-2tMOB-4" value="" style="shape=image;html=1;verticalAlign=top;verticalLabelPosition=bottom;labelBackgroundColor=#ffffff;imageAspect=0;aspect=fixed;image=https://cdn1.iconfinder.com/data/icons/hawcons/32/699165-icon-88-document-file-c-128.png;fontSize=15;" vertex="1" parent="1">
          <mxGeometry x="110.5" y="280" width="75" height="75" as="geometry"/>
        </mxCell>
        <mxCell id="a2Nq3Wo1sTJPkK-2tMOB-7" value="" style="endArrow=classic;html=1;" edge="1" parent="1">
          <mxGeometry width="50" height="50" relative="1" as="geometry">
            <mxPoint x="220" y="120" as="sourcePoint"/>
            <mxPoint x="260" y="120" as="targetPoint"/>
          </mxGeometry>
        </mxCell>
        <mxCell id="a2Nq3Wo1sTJPkK-2tMOB-9" value="&lt;pre&gt;&lt;font face=&quot;Courier New&quot;&gt;main.o&lt;br&gt;&lt;/font&gt;&lt;/pre&gt;" style="text;html=1;resizable=0;autosize=1;align=center;verticalAlign=middle;points=[];fillColor=none;strokeColor=none;rounded=0;fontFamily=Ubuntu Mono;" vertex="1" parent="1">
          <mxGeometry x="305" y="140" width="60" height="50" as="geometry"/>
        </mxCell>
        <mxCell id="a2Nq3Wo1sTJPkK-2tMOB-10" value="" style="shape=image;html=1;verticalAlign=top;verticalLabelPosition=bottom;labelBackgroundColor=#ffffff;imageAspect=0;aspect=fixed;image=https://cdn1.iconfinder.com/data/icons/DarkGlass_Reworked/128x128/mimetypes/binary.png" vertex="1" parent="1">
          <mxGeometry x="298" y="186" width="65" height="65" as="geometry"/>
        </mxCell>
        <mxCell id="a2Nq3Wo1sTJPkK-2tMOB-11" value="&lt;pre&gt;&lt;font face=&quot;Courier New&quot;&gt;src0.o&lt;br&gt;&lt;/font&gt;&lt;/pre&gt;" style="text;html=1;resizable=0;autosize=1;align=center;verticalAlign=middle;points=[];fillColor=none;strokeColor=none;rounded=0;fontFamily=Ubuntu Mono;" vertex="1" parent="1">
          <mxGeometry x="305" y="246" width="60" height="40" as="geometry"/>
        </mxCell>
        <mxCell id="a2Nq3Wo1sTJPkK-2tMOB-12" value="" style="shape=image;html=1;verticalAlign=top;verticalLabelPosition=bottom;labelBackgroundColor=#ffffff;imageAspect=0;aspect=fixed;image=https://cdn1.iconfinder.com/data/icons/DarkGlass_Reworked/128x128/mimetypes/binary.png" vertex="1" parent="1">
          <mxGeometry x="298" y="285" width="65" height="65" as="geometry"/>
        </mxCell>
        <mxCell id="a2Nq3Wo1sTJPkK-2tMOB-13" value="&lt;pre&gt;&lt;font face=&quot;Courier New&quot;&gt;src1.o&lt;br&gt;&lt;/font&gt;&lt;/pre&gt;" style="text;html=1;resizable=0;autosize=1;align=center;verticalAlign=middle;points=[];fillColor=none;strokeColor=none;rounded=0;fontFamily=Ubuntu Mono;" vertex="1" parent="1">
          <mxGeometry x="303" y="345" width="60" height="40" as="geometry"/>
        </mxCell>
        <mxCell id="a2Nq3Wo1sTJPkK-2tMOB-14" value="" style="endArrow=classic;html=1;" edge="1" parent="1">
          <mxGeometry width="50" height="50" relative="1" as="geometry">
            <mxPoint x="220" y="320" as="sourcePoint"/>
            <mxPoint x="260" y="320" as="targetPoint"/>
          </mxGeometry>
        </mxCell>
        <mxCell id="a2Nq3Wo1sTJPkK-2tMOB-15" value="" style="endArrow=classic;html=1;" edge="1" parent="1">
          <mxGeometry width="50" height="50" relative="1" as="geometry">
            <mxPoint x="220" y="230" as="sourcePoint"/>
            <mxPoint x="260" y="230" as="targetPoint"/>
          </mxGeometry>
        </mxCell>
        <mxCell id="a2Nq3Wo1sTJPkK-2tMOB-16" value="" style="rounded=1;whiteSpace=wrap;html=1;fillColor=#dae8fc;strokeColor=#6c8ebf;" vertex="1" parent="1">
          <mxGeometry x="110.5" y="390" width="70" height="30" as="geometry"/>
        </mxCell>
        <mxCell id="a2Nq3Wo1sTJPkK-2tMOB-17" value="&lt;div&gt;...&lt;/div&gt;" style="text;html=1;resizable=0;autosize=1;align=center;verticalAlign=middle;points=[];fillColor=none;strokeColor=none;rounded=0;" vertex="1" parent="1">
          <mxGeometry x="130.5" y="395" width="30" height="20" as="geometry"/>
        </mxCell>
        <mxCell id="a2Nq3Wo1sTJPkK-2tMOB-18" value="" style="rounded=1;whiteSpace=wrap;html=1;fillColor=#dae8fc;strokeColor=#6c8ebf;" vertex="1" parent="1">
          <mxGeometry x="297.5" y="390" width="70" height="30" as="geometry"/>
        </mxCell>
        <mxCell id="a2Nq3Wo1sTJPkK-2tMOB-19" value="&lt;div&gt;...&lt;/div&gt;" style="text;html=1;resizable=0;autosize=1;align=center;verticalAlign=middle;points=[];fillColor=none;strokeColor=none;rounded=0;" vertex="1" parent="1">
          <mxGeometry x="317.5" y="395" width="30" height="20" as="geometry"/>
        </mxCell>
        <mxCell id="a2Nq3Wo1sTJPkK-2tMOB-21" value="" style="rounded=1;whiteSpace=wrap;html=1;fillColor=#d5e8d4;strokeColor=#82b366;" vertex="1" parent="1">
          <mxGeometry x="281" y="515" width="99" height="380" as="geometry"/>
        </mxCell>
        <mxCell id="a2Nq3Wo1sTJPkK-2tMOB-22" value="" style="rounded=1;whiteSpace=wrap;html=1;" vertex="1" parent="1">
          <mxGeometry x="90" y="515" width="111" height="380" as="geometry"/>
        </mxCell>
        <mxCell id="a2Nq3Wo1sTJPkK-2tMOB-23" value="" style="shape=image;html=1;verticalAlign=top;verticalLabelPosition=bottom;labelBackgroundColor=#ffffff;imageAspect=0;aspect=fixed;image=https://cdn1.iconfinder.com/data/icons/DarkGlass_Reworked/128x128/mimetypes/binary.png" vertex="1" parent="1">
          <mxGeometry x="300" y="535" width="65" height="65" as="geometry"/>
        </mxCell>
        <mxCell id="a2Nq3Wo1sTJPkK-2tMOB-24" value="&lt;pre&gt;&lt;font face=&quot;Courier New&quot;&gt;main.c&lt;/font&gt;&lt;/pre&gt;" style="text;html=1;resizable=0;autosize=1;align=center;verticalAlign=middle;points=[];fillColor=none;strokeColor=none;rounded=0;fontFamily=Ubuntu Mono;" vertex="1" parent="1">
          <mxGeometry x="110.5" y="595" width="60" height="50" as="geometry"/>
        </mxCell>
        <mxCell id="a2Nq3Wo1sTJPkK-2tMOB-25" value="" style="html=1;shadow=0;dashed=0;align=center;verticalAlign=middle;shape=mxgraph.arrows2.arrow;dy=0.6;dx=40;notch=0;fontSize=15;fillColor=#dae8fc;strokeColor=#6c8ebf;" vertex="1" parent="1">
          <mxGeometry x="420" y="682.5" width="80" height="45" as="geometry"/>
        </mxCell>
        <mxCell id="a2Nq3Wo1sTJPkK-2tMOB-26" value="" style="shape=image;html=1;verticalAlign=top;verticalLabelPosition=bottom;labelBackgroundColor=#ffffff;imageAspect=0;aspect=fixed;image=https://cdn1.iconfinder.com/data/icons/hawcons/32/699144-icon-68-document-file-app-128.png;fontSize=15;imageBackground=#ffffff;" vertex="1" parent="1">
          <mxGeometry x="520" y="670" width="70" height="70" as="geometry"/>
        </mxCell>
        <mxCell id="a2Nq3Wo1sTJPkK-2tMOB-27" value="" style="shape=image;html=1;verticalAlign=top;verticalLabelPosition=bottom;labelBackgroundColor=#ffffff;imageAspect=0;aspect=fixed;image=https://cdn1.iconfinder.com/data/icons/hawcons/32/699165-icon-88-document-file-c-128.png;fontSize=15;" vertex="1" parent="1">
          <mxGeometry x="110.5" y="535" width="75" height="75" as="geometry"/>
        </mxCell>
        <mxCell id="a2Nq3Wo1sTJPkK-2tMOB-30" value="&lt;pre&gt;&lt;font face=&quot;Courier New&quot;&gt;src1.c&lt;/font&gt;&lt;/pre&gt;" style="text;html=1;resizable=0;autosize=1;align=center;verticalAlign=middle;points=[];fillColor=none;strokeColor=none;rounded=0;fontFamily=Ubuntu Mono;" vertex="1" parent="1">
          <mxGeometry x="110.5" y="795" width="60" height="50" as="geometry"/>
        </mxCell>
        <mxCell id="a2Nq3Wo1sTJPkK-2tMOB-31" value="" style="shape=image;html=1;verticalAlign=top;verticalLabelPosition=bottom;labelBackgroundColor=#ffffff;imageAspect=0;aspect=fixed;image=https://cdn1.iconfinder.com/data/icons/hawcons/32/699165-icon-88-document-file-c-128.png;fontSize=15;" vertex="1" parent="1">
          <mxGeometry x="110.5" y="735" width="75" height="75" as="geometry"/>
        </mxCell>
        <mxCell id="a2Nq3Wo1sTJPkK-2tMOB-32" value="" style="endArrow=classic;html=1;" edge="1" parent="1">
          <mxGeometry width="50" height="50" relative="1" as="geometry">
            <mxPoint x="220" y="575" as="sourcePoint"/>
            <mxPoint x="260" y="575" as="targetPoint"/>
          </mxGeometry>
        </mxCell>
        <mxCell id="a2Nq3Wo1sTJPkK-2tMOB-33" value="&lt;pre&gt;&lt;font face=&quot;Courier New&quot;&gt;main.o&lt;br&gt;&lt;/font&gt;&lt;/pre&gt;" style="text;html=1;resizable=0;autosize=1;align=center;verticalAlign=middle;points=[];fillColor=none;strokeColor=none;rounded=0;fontFamily=Ubuntu Mono;" vertex="1" parent="1">
          <mxGeometry x="305" y="595" width="60" height="50" as="geometry"/>
        </mxCell>
        <mxCell id="a2Nq3Wo1sTJPkK-2tMOB-36" value="" style="shape=image;html=1;verticalAlign=top;verticalLabelPosition=bottom;labelBackgroundColor=#ffffff;imageAspect=0;aspect=fixed;image=https://cdn1.iconfinder.com/data/icons/DarkGlass_Reworked/128x128/mimetypes/binary.png" vertex="1" parent="1">
          <mxGeometry x="298" y="740" width="65" height="65" as="geometry"/>
        </mxCell>
        <mxCell id="a2Nq3Wo1sTJPkK-2tMOB-37" value="&lt;pre&gt;&lt;font face=&quot;Courier New&quot;&gt;src1.o&lt;br&gt;&lt;/font&gt;&lt;/pre&gt;" style="text;html=1;resizable=0;autosize=1;align=center;verticalAlign=middle;points=[];fillColor=none;strokeColor=none;rounded=0;fontFamily=Ubuntu Mono;" vertex="1" parent="1">
          <mxGeometry x="303" y="800" width="60" height="40" as="geometry"/>
        </mxCell>
        <mxCell id="a2Nq3Wo1sTJPkK-2tMOB-38" value="" style="endArrow=classic;html=1;" edge="1" parent="1">
          <mxGeometry width="50" height="50" relative="1" as="geometry">
            <mxPoint x="220" y="775" as="sourcePoint"/>
            <mxPoint x="260" y="775" as="targetPoint"/>
          </mxGeometry>
        </mxCell>
        <mxCell id="a2Nq3Wo1sTJPkK-2tMOB-40" value="" style="rounded=1;whiteSpace=wrap;html=1;fillColor=#dae8fc;strokeColor=#6c8ebf;" vertex="1" parent="1">
          <mxGeometry x="110.5" y="845" width="70" height="30" as="geometry"/>
        </mxCell>
        <mxCell id="a2Nq3Wo1sTJPkK-2tMOB-41" value="&lt;div&gt;...&lt;/div&gt;" style="text;html=1;resizable=0;autosize=1;align=center;verticalAlign=middle;points=[];fillColor=none;strokeColor=none;rounded=0;" vertex="1" parent="1">
          <mxGeometry x="130.5" y="850" width="30" height="20" as="geometry"/>
        </mxCell>
        <mxCell id="a2Nq3Wo1sTJPkK-2tMOB-42" value="" style="rounded=1;whiteSpace=wrap;html=1;fillColor=#dae8fc;strokeColor=#6c8ebf;" vertex="1" parent="1">
          <mxGeometry x="297.5" y="845" width="70" height="30" as="geometry"/>
        </mxCell>
        <mxCell id="a2Nq3Wo1sTJPkK-2tMOB-43" value="&lt;div&gt;...&lt;/div&gt;" style="text;html=1;resizable=0;autosize=1;align=center;verticalAlign=middle;points=[];fillColor=none;strokeColor=none;rounded=0;" vertex="1" parent="1">
          <mxGeometry x="317.5" y="850" width="30" height="20" as="geometry"/>
        </mxCell>
        <mxCell id="a2Nq3Wo1sTJPkK-2tMOB-44" value="" style="rounded=1;whiteSpace=wrap;html=1;fillColor=#FDFFDE;strokeColor=#d6b656;" vertex="1" parent="1">
          <mxGeometry x="100" y="630" width="270" height="100" as="geometry"/>
        </mxCell>
        <mxCell id="a2Nq3Wo1sTJPkK-2tMOB-29" value="" style="shape=image;html=1;verticalAlign=top;verticalLabelPosition=bottom;labelBackgroundColor=#ffffff;imageAspect=0;aspect=fixed;image=https://cdn1.iconfinder.com/data/icons/hawcons/32/699165-icon-88-document-file-c-128.png;fontSize=15;imageBackground=none;" vertex="1" parent="1">
          <mxGeometry x="110.5" y="636" width="75" height="75" as="geometry"/>
        </mxCell>
        <mxCell id="a2Nq3Wo1sTJPkK-2tMOB-28" value="&lt;pre&gt;&lt;font face=&quot;Courier New&quot;&gt;src0.c&lt;/font&gt;&lt;/pre&gt;" style="text;html=1;resizable=0;autosize=1;align=center;verticalAlign=middle;points=[];fillColor=none;strokeColor=none;rounded=0;fontFamily=Ubuntu Mono;" vertex="1" parent="1">
          <mxGeometry x="110.5" y="696" width="60" height="50" as="geometry"/>
        </mxCell>
        <mxCell id="a2Nq3Wo1sTJPkK-2tMOB-39" value="" style="endArrow=classic;html=1;" edge="1" parent="1">
          <mxGeometry width="50" height="50" relative="1" as="geometry">
            <mxPoint x="220" y="685" as="sourcePoint"/>
            <mxPoint x="260" y="685" as="targetPoint"/>
          </mxGeometry>
        </mxCell>
        <mxCell id="a2Nq3Wo1sTJPkK-2tMOB-34" value="" style="shape=image;html=1;verticalAlign=top;verticalLabelPosition=bottom;labelBackgroundColor=#ffffff;imageAspect=0;aspect=fixed;image=https://cdn1.iconfinder.com/data/icons/DarkGlass_Reworked/128x128/mimetypes/binary.png" vertex="1" parent="1">
          <mxGeometry x="298" y="641" width="65" height="65" as="geometry"/>
        </mxCell>
        <mxCell id="a2Nq3Wo1sTJPkK-2tMOB-35" value="&lt;pre&gt;&lt;font face=&quot;Courier New&quot;&gt;src0.o&lt;br&gt;&lt;/font&gt;&lt;/pre&gt;" style="text;html=1;resizable=0;autosize=1;align=center;verticalAlign=middle;points=[];fillColor=none;strokeColor=none;rounded=0;fontFamily=Ubuntu Mono;" vertex="1" parent="1">
          <mxGeometry x="305" y="701" width="60" height="40" as="geometry"/>
        </mxCell>
      </root>
    </mxGraphModel>
  </diagram>
</mxfile>
